<svg width="30" height="34" viewBox="0 0 30 34" fill="none" xmlns="http://www.w3.org/2000/svg">
<path d="M7.24065 32.0068L7.24079 32.0059C7.24549 32.0067 7.24771 32.007 7.24771 32.007C7.24771 32.007 7.24637 32.0069 7.24381 32.0068L7.24065 32.0068ZM7.24065 32.0068C7.23139 32.0068 7.21343 32.0078 7.18918 32.0135C7.16598 32.0189 7.14323 32.0272 7.12278 32.0375C7.10375 32.0472 7.09128 32.0562 7.0853 32.0611C7.08494 32.0613 7.08462 32.0616 7.08431 32.0619L7.24065 32.0068ZM27.2965 9.36172C27.3886 9.4054 27.4795 9.43406 27.5668 9.4517C27.4608 9.55204 27.3561 9.65701 27.2564 9.76622C27.0437 9.99441 26.7772 10.1377 26.3228 10.271C23.0701 11.2081 19.8284 12.1558 16.5889 13.1028L16.5874 13.1032L16.5838 13.1043L13.5789 13.9952C13.5192 14.0118 13.4711 14.0302 13.4408 14.0426C13.406 14.0567 13.3741 14.0713 13.3591 14.0781L13.3524 14.0812C13.3209 14.0956 13.3037 14.1034 13.2786 14.1134L11.9027 14.6611L12.9248 15.7327C15.0441 17.9544 17.0777 20.2155 19.034 22.5603C18.9374 22.6127 18.8388 22.663 18.733 22.7123C17.8207 23.1173 17.2247 23.7908 16.9378 24.749C16.8808 24.9346 16.802 25.1265 16.7018 25.3556C16.6841 25.3962 16.6653 25.4388 16.6458 25.483C16.5907 25.6077 16.5301 25.7451 16.4714 25.8868C15.3579 26.1096 14.2452 26.3411 13.1369 26.5718L13.1366 26.5718C13.1363 26.5719 13.136 26.572 13.1357 26.572C12.9504 26.6102 12.8121 26.6411 12.6804 26.6705C12.5327 26.7035 12.3931 26.7347 12.2046 26.7722C11.5651 26.8961 11.184 27.2941 10.9488 27.6901L10.9468 27.6935C10.8269 27.8973 10.7077 28.1007 10.5888 28.3035C10.2688 28.8494 9.95081 29.3917 9.62593 29.9306L9.62587 29.9306L9.61961 29.9413C9.6113 29.9555 9.60363 29.9675 9.59682 29.9775C9.59224 29.9842 9.58838 29.9894 9.58536 29.9933L9.58103 29.9965L9.55614 30.0171L7.16756 31.993C6.25668 31.8325 5.34847 31.6745 4.44149 31.5168L4.4392 31.5164C3.50715 31.3542 2.57639 31.1923 1.64317 31.0278C1.48933 30.9993 1.33451 30.972 1.17741 30.9453C1.18774 30.8866 1.19786 30.828 1.20774 30.7692C1.23481 30.6322 1.24381 30.4826 1.23432 30.344C1.22917 30.2689 1.2158 30.152 1.17351 30.0228C1.16128 29.9854 1.13624 29.9134 1.08904 29.8278C1.14287 29.6094 1.20964 29.395 1.28591 29.1501C1.31909 29.0435 1.35407 28.9312 1.39056 28.8103C1.52124 28.3772 1.65939 27.8654 1.69344 27.303L1.69361 27.2999C1.70694 27.0678 1.77007 26.8962 1.85766 26.7858C2.22471 26.336 2.43821 25.6953 2.16023 24.9911L2.16025 24.9911L2.15794 24.9853C2.15641 24.9815 2.15541 24.9786 2.15476 24.9699C2.15391 24.9585 2.15357 24.933 2.1607 24.8843C2.16822 24.8329 2.18149 24.7712 2.20401 24.6799C2.2085 24.6617 2.21386 24.6404 2.21975 24.617C2.23824 24.5436 2.262 24.4491 2.2811 24.3618C2.34737 24.0666 2.31349 23.7356 2.30432 23.646C2.30334 23.6365 2.30265 23.6297 2.30238 23.6259L2.30245 23.6259L2.30146 23.6141C2.2979 23.5715 2.29297 23.5333 2.28823 23.5016C2.28476 23.4783 2.28113 23.4568 2.27785 23.4383C2.30197 23.3541 2.32509 23.2724 2.34756 23.1929C2.52026 22.5824 2.65443 22.1081 2.90878 21.6642C3.02122 21.4705 3.06903 21.2833 3.09214 21.1859C3.09972 21.154 3.10994 21.1074 3.11564 21.0814C3.1174 21.0734 3.11873 21.0673 3.11942 21.0643C3.12098 21.0573 3.12228 21.0517 3.12333 21.0473C3.12514 21.0433 3.12759 21.0379 3.13085 21.031C3.13591 21.0202 3.14006 21.0116 3.14582 20.9997C3.14934 20.9924 3.15346 20.9838 3.15877 20.9728C3.17073 20.9478 3.18594 20.9158 3.2021 20.8796L3.21426 20.8523L3.22478 20.8244C3.25865 20.7345 3.29219 20.6427 3.32372 20.5564L3.32454 20.5542C3.35695 20.4655 3.3873 20.3824 3.41732 20.3028L3.4201 20.2954L3.42277 20.2879C3.44821 20.217 3.46726 20.1509 3.4788 20.1106L3.48423 20.0916C3.73436 19.783 3.8521 19.4554 3.91295 19.1375L3.91299 19.1375L3.9145 19.1292C3.9272 19.0597 3.96272 18.9739 4.08107 18.7384L4.08502 18.7305L4.08883 18.7226C4.29154 18.3007 4.41919 17.6997 4.08015 17.0833C4.03877 17.0012 4.03611 16.9698 4.03587 16.9673C4.03568 16.9653 4.03531 16.9611 4.03679 16.9511C4.03838 16.9405 4.04298 16.9177 4.05718 16.8799C4.29712 16.2595 4.35637 15.5903 4.39793 15.094L4.398 15.094L4.39885 15.0821C4.45041 14.3637 4.54692 13.9036 4.82376 13.532L4.83871 13.5119L4.85264 13.4911C4.91297 13.4011 4.95672 13.309 4.98699 13.2287C5.01025 13.1669 5.06458 13.0125 5.06458 12.8175V12.7435L5.05369 12.6703C5.03803 12.5651 5.02335 12.4737 5.01001 12.3906C4.98028 12.2054 4.95719 12.0616 4.94473 11.8991C4.9449 11.8953 4.94553 11.8771 4.94961 11.8316C4.95013 11.8258 4.95081 11.8185 4.95159 11.8101C4.95418 11.782 4.95787 11.742 4.96058 11.7065C4.96446 11.6556 4.96832 11.5908 4.96832 11.5187C4.96832 11.5144 4.96839 11.5086 4.96847 11.5014C4.96962 11.4073 4.97358 11.0829 4.8534 10.7839L4.85341 10.7839L4.85253 10.7817C4.85212 10.7766 4.85132 10.7584 4.85684 10.7194C4.86269 10.678 4.87384 10.6249 4.89396 10.5468C4.90396 10.5079 4.91484 10.4679 4.9278 10.4203L4.92902 10.4158C4.94081 10.3726 4.95444 10.3225 4.96766 10.2715C5.13912 9.62637 5.17995 8.97476 5.08849 8.31403C5.0428 7.9268 5.04928 7.64579 5.12644 7.3977L5.13467 7.37123L5.14142 7.34436C5.17631 7.20543 5.17669 7.0865 5.17286 7.01318C5.16891 6.93738 5.15825 6.87457 5.15105 6.83691C5.1441 6.80062 5.13638 6.768 5.1331 6.75412L5.13269 6.7524C5.13248 6.7515 5.13228 6.75066 5.13209 6.74986C5.12985 6.73732 5.12761 6.72574 5.1255 6.71525C5.12327 6.70419 5.12105 6.69381 5.11898 6.68442C5.12007 6.66417 5.12215 6.63986 5.12548 6.60116C5.12761 6.57628 5.13026 6.54545 5.13348 6.50592C5.1361 6.47377 5.13914 6.43489 5.14149 6.39081C5.29316 6.31236 5.4165 6.22272 5.50508 6.15255C5.51998 6.14103 5.53348 6.13066 5.5458 6.12129C5.67573 6.17927 5.79767 6.22242 5.89516 6.25543C5.91016 6.26051 5.92443 6.26531 5.93804 6.26986C6.04934 6.41903 6.17934 6.52216 6.29634 6.59242C6.39292 6.78408 6.50282 6.99949 6.61154 7.18705L6.62041 7.20236L6.62983 7.21735C6.77743 7.4524 6.97791 7.59262 7.11777 7.66955C7.26418 7.75007 7.44581 7.81716 7.64488 7.83918L7.66435 7.84133L7.68389 7.84272C7.8085 7.85158 7.92534 7.84462 8.01029 7.83656C8.04794 7.86574 8.08494 7.89424 8.11973 7.92103C8.17944 7.96703 8.23261 8.00798 8.27128 8.03864C8.41993 8.15652 8.5202 8.24666 8.59267 8.33032L8.60079 8.3397L8.60914 8.34887C8.93098 8.70232 9.301 8.86031 9.60281 8.94399C9.7433 8.98294 9.87845 9.00813 9.97174 9.02549L9.97306 9.02574C10.0785 9.04538 10.1374 9.05634 10.1916 9.07021L10.1994 9.07221L10.2072 9.07408C10.4009 9.12034 10.5855 9.14431 10.7322 9.16132C10.7809 9.16697 10.824 9.17174 10.8635 9.17611C10.9521 9.18592 11.0229 9.19374 11.0987 9.20504C11.2299 9.22915 11.3606 9.25846 11.5126 9.29255C11.5307 9.29659 11.549 9.30069 11.5676 9.30486C11.7398 9.3434 11.9399 9.38736 12.147 9.41958L12.1494 9.41994C12.3033 9.4435 12.4759 9.44884 12.6487 9.42878C12.8098 9.41007 13.0516 9.36021 13.285 9.21239L13.285 9.21241L13.2897 9.20944C14.7936 8.24525 16.2974 7.27586 17.8 6.30726L17.8002 6.30711L17.8009 6.30666C19.3037 5.33793 20.8053 4.36999 22.3066 3.40749L22.3069 3.4073C23.0357 2.93974 23.7455 2.49955 24.4623 2.05507C24.7388 1.88367 25.0162 1.71163 25.2961 1.53714C25.4258 2.01345 25.555 2.48986 25.6843 2.96646C26.0021 4.13823 26.3202 5.31116 26.6455 6.48666C26.5723 6.56109 26.5049 6.65114 26.4486 6.76011C26.2353 7.1729 26.3406 7.56442 26.409 7.74744C26.4936 8.0017 26.5691 8.25535 26.6353 8.50839C26.695 8.76352 26.8593 9.15452 27.2965 9.36172ZM1.02751 30.1128C1.02747 30.1129 1.02771 30.1112 1.02838 30.1077C1.0279 30.111 1.02756 30.1128 1.02751 30.1128ZM6.6403 6.74296C6.64026 6.74295 6.63938 6.74263 6.63779 6.74203C6.63955 6.74267 6.64035 6.74297 6.6403 6.74296ZM5.68664 5.5483C5.68624 5.54086 5.68592 5.53337 5.68568 5.52581L5.68592 5.53184C5.68613 5.53731 5.68637 5.54279 5.68664 5.5483Z" stroke="#127533" stroke-width="2"/>
</svg>
