<svg width="18" height="18" viewBox="0 0 18 18" fill="none" xmlns="http://www.w3.org/2000/svg">
<path d="M15.4611 12.8348C14.5967 12.9013 13.0675 12.7683 11.7378 11.5715C11.7378 11.5715 6.55173 6.18603 6.61822 2.72868C6.61822 2.72868 6.61822 2.32975 6.7512 1.93083C6.88417 1.39893 7.34958 1 7.88148 1C8.67933 1 8.54636 2.39624 8.47987 3.19409C8.28041 5.38818 7.74851 9.51041 6.01983 12.3029C5.82037 12.6353 5.62091 12.9678 5.48793 13.3002C4.95603 14.497 3.29384 17.6884 1.23273 17.0235C1.23273 17.0235 0.501365 16.6911 1.63165 15.5608C1.8976 15.2948 2.16355 15.0954 2.49599 14.8959C4.02521 14.098 9.34421 11.3056 13.134 11.1061C13.134 11.1061 14.8627 10.9731 15.7935 11.4385C16.9903 12.0369 17.5222 12.1699 16.3254 12.6353C15.9265 12.8348 15.86 12.7683 15.4611 12.8348Z" stroke="#E52D42" stroke-width="0.997313" stroke-miterlimit="10" stroke-linecap="round" stroke-linejoin="round"/>
</svg>
