<svg width="131" height="92" viewBox="0 0 131 92" fill="none" xmlns="http://www.w3.org/2000/svg">
<path d="M35.3057 26.2067C40.6197 36.9779 61.2219 51.3667 82.6621 37.775C73.526 40.943 63.0001 39.2466 55.2334 32.3996C52.5355 30.0288 50.4303 27.2287 48.8974 24.2242C55.8261 32.2361 66.7608 36.3239 77.8386 33.9325C88.7733 31.5617 96.9896 23.5088 100.076 13.5347C98.3181 31.0098 85.544 46.114 67.4557 50.0178C48.8974 54.0238 30.5843 44.9899 22.0205 29.0886L35.3057 26.2067Z" fill="#0D722E"/>
<path d="M82.6622 37.775C73.5261 40.943 63.0002 39.2466 55.2335 32.3996C52.5356 30.0288 50.4304 27.2287 48.8975 24.2242C55.8262 32.2361 66.7609 36.3239 77.8386 33.9325C88.7733 31.5617 96.9897 23.5088 100.076 13.5347C97.9708 28.6798 82.6622 37.775 82.6622 37.775Z" fill="#0D722E"/>
<path d="M25.5158 12.9215L27.8253 16.3552L31.443 14.3318L30.1758 18.2969L34.0183 19.8502L30.1349 21.3422L31.3204 25.3074L27.7436 23.2022L25.3727 26.595L24.78 22.4868L20.6514 22.7525L23.4923 19.7276L20.7127 16.6618L24.8413 17.0092L25.5158 12.9215Z" fill="#EEC343" stroke="#666666" stroke-width="0.5" stroke-miterlimit="10"/>
<path d="M106.8 13.8821L102.896 0.167788C102.835 -0.0161605 102.672 -0.0570379 102.549 0.0860329L93.045 10.7142C92.8611 10.9185 92.8815 11.3273 93.0859 11.3682L106.494 14.4544C106.678 14.4953 106.882 14.1479 106.8 13.8821Z" fill="#0D722E"/>
<path d="M4.52523 84.8861H1.6025V87.4818H4.3004V88.2789H1.6025V91.59H0.723633V84.1094H4.52523V84.8861Z" fill="black"/>
<path d="M6.26278 84.8861C6.11971 84.8861 5.97664 84.8248 5.87445 84.7226C5.77225 84.6204 5.71094 84.4773 5.71094 84.3342C5.71094 84.1707 5.77225 84.0481 5.87445 83.9255C5.97664 83.8028 6.11971 83.762 6.26278 83.762C6.42629 83.762 6.54892 83.8233 6.67156 83.9255C6.79419 84.0277 6.83507 84.1707 6.83507 84.3342C6.83507 84.4978 6.77375 84.6204 6.67156 84.7226C6.56936 84.8248 6.42629 84.8861 6.26278 84.8861ZM6.69199 91.59H5.83357V86.235H6.69199V91.59Z" fill="black"/>
<path d="M12.8638 91.5901H12.0054V88.5447C12.0054 87.4001 11.5966 86.8483 10.7587 86.8483C10.3294 86.8483 9.98198 87.0118 9.69584 87.3388C9.4097 87.6658 9.26663 88.0746 9.26663 88.5651V91.6105H8.4082V86.2556H9.26663V87.1344H9.30751C9.71628 86.4599 10.2886 86.1125 11.0652 86.1125C11.658 86.1125 12.1076 86.2964 12.4142 86.6848C12.7208 87.0527 12.8843 87.6045 12.8843 88.3199V91.5901H12.8638Z" fill="black"/>
<path d="M18.3012 91.59H17.4428V90.7521H17.4223C17.0544 91.3857 16.5026 91.7127 15.7872 91.7127C15.2558 91.7127 14.8471 91.5696 14.5405 91.2835C14.2339 90.9973 14.0908 90.6294 14.0908 90.1593C14.0908 89.1578 14.6835 88.5856 15.8485 88.4221L17.4428 88.1972C17.4428 87.2979 17.0749 86.8278 16.3391 86.8278C15.685 86.8278 15.1128 87.0527 14.6018 87.4819V86.603C15.1332 86.276 15.7259 86.092 16.4208 86.092C17.6676 86.092 18.3012 86.7665 18.3012 88.095V91.59ZM17.4428 88.8921L16.1551 89.0761C15.7668 89.1374 15.4602 89.2396 15.2558 89.3622C15.0514 89.5053 14.9492 89.7506 14.9492 90.1185C14.9492 90.3842 15.0514 90.5886 15.2354 90.7521C15.4193 90.9156 15.6646 90.9973 15.9712 90.9973C16.4004 90.9973 16.7478 90.8543 17.0136 90.5477C17.2997 90.2411 17.4223 89.8732 17.4223 89.4235V88.8921H17.4428Z" fill="black"/>
<path d="M24.3511 91.5901H23.4927V88.5447C23.4927 87.4001 23.0839 86.8483 22.246 86.8483C21.8167 86.8483 21.4693 87.0118 21.1831 87.3388C20.897 87.6658 20.7539 88.0746 20.7539 88.5651V91.6105H19.8955V86.2556H20.7539V87.1344H20.7744C21.1831 86.4599 21.7554 86.1125 22.5321 86.1125C23.1248 86.1125 23.5745 86.2964 23.8811 86.6848C24.1876 87.0527 24.3511 87.6045 24.3511 88.3199V91.5901Z" fill="black"/>
<path d="M29.6241 91.3447C29.2154 91.59 28.7248 91.7126 28.1526 91.7126C27.3963 91.7126 26.7832 91.4674 26.3131 90.9768C25.843 90.4863 25.6182 89.8323 25.6182 89.0556C25.6182 88.1767 25.8634 87.4614 26.3744 86.93C26.8854 86.3986 27.5598 86.1329 28.3978 86.1329C28.8679 86.1329 29.2767 86.2146 29.6446 86.3986V87.2774C29.2563 86.9913 28.827 86.8687 28.3774 86.8687C27.8255 86.8687 27.3759 87.0731 27.0284 87.4614C26.681 87.8497 26.497 88.3607 26.497 89.0147C26.497 89.6483 26.6605 90.1389 26.9876 90.5068C27.3146 90.8746 27.7642 91.0586 28.3161 91.0586C28.7862 91.0586 29.2154 90.8951 29.6241 90.5885V91.3447Z" fill="black"/>
<path d="M31.3409 84.8861C31.1978 84.8861 31.0548 84.8248 30.9526 84.7226C30.8504 84.6204 30.7891 84.4773 30.7891 84.3342C30.7891 84.1707 30.8504 84.0481 30.9526 83.9255C31.0548 83.8028 31.1978 83.762 31.3409 83.762C31.5044 83.762 31.627 83.8233 31.7497 83.9255C31.8723 84.0277 31.9132 84.1707 31.9132 84.3342C31.9132 84.4978 31.8519 84.6204 31.7497 84.7226C31.6475 84.8248 31.5044 84.8861 31.3409 84.8861ZM31.7701 91.59H30.9117V86.235H31.7701V91.59Z" fill="black"/>
<path d="M37.3295 91.59H36.4711V90.7521H36.4506C36.0828 91.3857 35.5309 91.7127 34.8156 91.7127C34.2841 91.7127 33.8754 91.5696 33.5688 91.2835C33.2622 90.9973 33.1191 90.6294 33.1191 90.1593C33.1191 89.1578 33.7119 88.5856 34.8769 88.4221L36.4711 88.1972C36.4711 87.2979 36.1032 86.8278 35.3674 86.8278C34.7134 86.8278 34.1411 87.0527 33.6301 87.4819V86.603C34.1615 86.276 34.7542 86.092 35.4491 86.092C36.6959 86.092 37.3295 86.7665 37.3295 88.095V91.59ZM36.4711 88.8921L35.1834 89.0761C34.7951 89.1374 34.4885 89.2396 34.2841 89.3622C34.0798 89.5053 33.9776 89.7506 33.9776 90.1185C33.9776 90.3842 34.0798 90.5886 34.2637 90.7521C34.4477 90.9156 34.6929 90.9973 34.9995 90.9973C35.4287 90.9973 35.7762 90.8543 36.0419 90.5477C36.328 90.2411 36.4506 89.8732 36.4506 89.4235V88.8921H36.4711Z" fill="black"/>
<path d="M39.8028 91.59H38.9443V83.6802H39.8028V91.59Z" fill="black"/>
<path d="M45.4638 91.59H44.585V84.1094H45.4638V91.59Z" fill="black"/>
<path d="M51.7593 91.5901H50.9009V88.5447C50.9009 87.4001 50.4921 86.8483 49.6542 86.8483C49.2249 86.8483 48.8775 87.0118 48.5913 87.3388C48.3052 87.6658 48.1621 88.0746 48.1621 88.5651V91.6105H47.3037V86.2556H48.1621V87.1344H48.1826C48.5913 86.4599 49.1636 86.1125 49.9403 86.1125C50.533 86.1125 50.9827 86.2964 51.2893 86.6848C51.5958 87.0527 51.7593 87.6045 51.7593 88.3199V91.5901Z" fill="black"/>
<path d="M57.0118 91.3447C56.6031 91.59 56.1125 91.7126 55.5403 91.7126C54.784 91.7126 54.1709 91.4674 53.7008 90.9768C53.2307 90.4863 53.0059 89.8323 53.0059 89.0556C53.0059 88.1767 53.2511 87.4614 53.7621 86.93C54.2731 86.3986 54.9475 86.1329 55.7855 86.1329C56.2556 86.1329 56.6644 86.2146 57.0323 86.3986V87.2774C56.6439 86.9913 56.2147 86.8687 55.7651 86.8687C55.2132 86.8687 54.7636 87.0731 54.4161 87.4614C54.0687 87.8497 53.8847 88.3607 53.8847 89.0147C53.8847 89.6483 54.0482 90.1389 54.3753 90.5068C54.7023 90.8746 55.1519 91.0586 55.7038 91.0586C56.1739 91.0586 56.6031 90.8951 57.0118 90.5885V91.3447Z" fill="black"/>
<path d="M59.1582 91.59H58.2998V83.6802H59.1582V91.59Z" fill="black"/>
<path d="M65.2281 91.59H64.3697V90.752H64.3492C64.0018 91.406 63.4499 91.7331 62.6937 91.7331C61.4265 91.7331 60.7725 90.9768 60.7725 89.4644V86.2759H61.6309V89.3417C61.6309 90.4659 62.0601 91.0382 62.9185 91.0382C63.3273 91.0382 63.6748 90.8746 63.9405 90.5681C64.2062 90.2615 64.3492 89.8527 64.3492 89.3622V86.2759H65.2077V91.59H65.2281Z" fill="black"/>
<path d="M66.6182 91.3857V90.4659C67.0883 90.8134 67.5992 90.9769 68.1511 90.9769C68.9073 90.9769 69.2752 90.7316 69.2752 90.2207C69.2752 90.0776 69.2343 89.955 69.173 89.8528C69.1117 89.7506 69.0299 89.6688 68.9073 89.5871C68.8051 89.5053 68.662 89.444 68.519 89.3827C68.3759 89.3213 68.2124 89.26 68.0489 89.1987C67.8036 89.0965 67.5992 89.0148 67.4153 88.9126C67.2313 88.8104 67.0883 88.7082 66.9656 88.5856C66.843 88.4629 66.7612 88.3199 66.6999 88.1768C66.6386 88.0133 66.6182 87.8498 66.6182 87.6454C66.6182 87.4001 66.6795 87.1753 66.7817 86.9709C66.9043 86.787 67.0474 86.6234 67.2313 86.4804C67.4153 86.3577 67.6401 86.2556 67.8854 86.1942C68.1306 86.1329 68.3759 86.092 68.6416 86.092C69.1117 86.092 69.5205 86.1738 69.8884 86.3373V87.1957C69.5 86.93 69.0504 86.8074 68.5394 86.8074C68.3759 86.8074 68.2328 86.8278 68.1102 86.8687C67.9876 86.9096 67.8649 86.9505 67.7832 87.0322C67.681 87.0935 67.6197 87.1753 67.5788 87.2775C67.5379 87.3797 67.497 87.4614 67.497 87.5841C67.497 87.7271 67.5175 87.8498 67.5788 87.9315C67.6401 88.0133 67.7014 88.1155 67.8036 88.1768C67.9058 88.2585 68.0284 88.3199 68.1511 88.3812C68.2941 88.4425 68.4576 88.5038 68.6212 88.5651C68.8664 88.6469 69.0708 88.7491 69.2548 88.8513C69.4387 88.9535 69.6022 89.0556 69.7453 89.1783C69.8884 89.3009 69.9701 89.444 70.0519 89.5871C70.1132 89.7506 70.1541 89.9345 70.1541 90.1389C70.1541 90.4046 70.0927 90.6294 69.9701 90.8338C69.8475 91.0382 69.7044 91.1813 69.5 91.3243C69.2956 91.4674 69.0708 91.5492 68.8255 91.6105C68.5803 91.6718 68.3146 91.7127 68.0284 91.7127C67.497 91.7127 67.0269 91.6105 66.6182 91.3857Z" fill="black"/>
<path d="M71.9317 84.8861C71.7682 84.8861 71.6456 84.8248 71.5434 84.7226C71.4412 84.6204 71.3799 84.4773 71.3799 84.3342C71.3799 84.1707 71.4412 84.0481 71.5434 83.9255C71.6456 83.8028 71.7887 83.762 71.9317 83.762C72.0952 83.762 72.2179 83.8233 72.3405 83.9255C72.4427 84.0277 72.504 84.1707 72.504 84.3342C72.504 84.4978 72.4427 84.6204 72.3405 84.7226C72.2179 84.8248 72.0748 84.8861 71.9317 84.8861ZM72.3405 91.59H71.4821V86.235H72.3405V91.59Z" fill="black"/>
<path d="M76.3056 91.7127C75.5085 91.7127 74.8749 91.4674 74.4048 90.9565C73.9347 90.4659 73.6895 89.7915 73.6895 88.9739C73.6895 88.0746 73.9347 87.3797 74.4252 86.8687C74.9158 86.3578 75.5698 86.1125 76.4078 86.1125C77.2049 86.1125 77.8181 86.3578 78.2677 86.8483C78.7174 87.3388 78.9422 88.0133 78.9422 88.8922C78.9422 89.7506 78.6969 90.4251 78.2268 90.936C77.7772 91.447 77.1232 91.7127 76.3056 91.7127ZM76.3669 86.8278C75.8151 86.8278 75.3859 87.0118 75.0588 87.3797C74.7318 87.7476 74.5683 88.279 74.5683 88.933C74.5683 89.5666 74.7318 90.0572 75.0588 90.4251C75.3859 90.7929 75.8151 90.9769 76.3669 90.9769C76.9188 90.9769 77.348 90.793 77.6341 90.4455C77.9407 90.0776 78.0838 89.5871 78.0838 88.9126C78.0838 88.2381 77.9407 87.7271 77.6341 87.3592C77.348 87.0118 76.9392 86.8278 76.3669 86.8278Z" fill="black"/>
<path d="M84.7877 91.5901H83.9292V88.5447C83.9292 87.4001 83.5205 86.8483 82.6825 86.8483C82.2533 86.8483 81.9058 87.0118 81.6197 87.3388C81.3335 87.6658 81.1905 88.0746 81.1905 88.5651V91.6105H80.332V86.2556H81.1905V87.1344H81.2109C81.6197 86.4599 82.192 86.1125 82.9686 86.1125C83.5613 86.1125 84.011 86.2964 84.3176 86.6848C84.6242 87.0527 84.7877 87.6045 84.7877 88.3199V91.5901Z" fill="black"/>
<path d="M90.3271 91.59H89.4482V84.1094H90.3271V91.59Z" fill="black"/>
<path d="M96.6217 91.5901H95.7632V88.5447C95.7632 87.4001 95.3545 86.8483 94.5165 86.8483C94.0873 86.8483 93.7398 87.0118 93.4537 87.3388C93.1675 87.6658 93.0244 88.0746 93.0244 88.5651V91.6105H92.166V86.2556H93.0244V87.1344H93.0449C93.4537 86.4599 94.0259 86.1125 94.8026 86.1125C95.3953 86.1125 95.845 86.2964 96.1516 86.6848C96.4581 87.0527 96.6217 87.6045 96.6217 88.3199V91.5901Z" fill="black"/>
<path d="M103.183 88.9125C103.183 89.7914 102.999 90.4863 102.611 90.9768C102.243 91.4674 101.732 91.7126 101.098 91.7126C100.812 91.7126 100.567 91.6718 100.383 91.59V90.7316C100.567 90.8746 100.812 90.936 101.119 90.936C101.916 90.936 102.304 90.2615 102.304 88.933V84.1094H103.183V88.9125Z" fill="black"/>
<path d="M107.209 91.7127C106.412 91.7127 105.778 91.4674 105.308 90.9565C104.838 90.4659 104.593 89.7915 104.593 88.9739C104.593 88.0746 104.838 87.3797 105.329 86.8687C105.819 86.3578 106.473 86.1125 107.311 86.1125C108.108 86.1125 108.721 86.3578 109.171 86.8483C109.621 87.3388 109.846 88.0133 109.846 88.8922C109.846 89.7506 109.6 90.4251 109.13 90.936C108.66 91.447 108.026 91.7127 107.209 91.7127ZM107.27 86.8278C106.718 86.8278 106.289 87.0118 105.962 87.3797C105.635 87.7476 105.472 88.279 105.472 88.933C105.472 89.5666 105.635 90.0572 105.962 90.4251C106.289 90.7929 106.718 90.9769 107.27 90.9769C107.822 90.9769 108.251 90.793 108.537 90.4455C108.844 90.0776 108.987 89.5871 108.987 88.9126C108.987 88.2381 108.844 87.7271 108.537 87.3592C108.251 87.0118 107.822 86.8278 107.27 86.8278Z" fill="black"/>
<path d="M114.035 87.1139C113.892 86.9913 113.668 86.9504 113.381 86.9504C113.014 86.9504 112.707 87.1139 112.462 87.4614C112.216 87.8089 112.094 88.2789 112.094 88.8717V91.59H111.235V86.2351H112.094V87.3388H112.114C112.237 86.9709 112.421 86.6643 112.666 86.4599C112.911 86.2555 113.197 86.1533 113.504 86.1533C113.729 86.1533 113.892 86.1738 114.015 86.2351V87.1139H114.035Z" fill="black"/>
<path d="M119.39 91.59H118.532V90.6907H118.512C118.123 91.3856 117.51 91.7331 116.672 91.7331C115.998 91.7331 115.466 91.4878 115.057 91.0177C114.649 90.5476 114.444 89.8936 114.444 89.0556C114.444 88.1768 114.669 87.4614 115.119 86.93C115.568 86.3986 116.161 86.1329 116.897 86.1329C117.633 86.1329 118.164 86.419 118.491 86.9913H118.512V83.6802H119.37V91.59H119.39ZM118.532 89.1782V88.3811C118.532 87.9519 118.389 87.584 118.103 87.2774C117.817 86.9709 117.449 86.8278 117.02 86.8278C116.488 86.8278 116.079 87.0117 115.793 87.4001C115.507 87.7884 115.344 88.3198 115.344 88.9943C115.344 89.6075 115.487 90.098 115.773 90.4454C116.059 90.7929 116.447 90.9769 116.938 90.9769C117.408 90.9769 117.796 90.8133 118.103 90.4659C118.389 90.1389 118.532 89.6892 118.532 89.1782Z" fill="black"/>
<path d="M124.951 91.59H124.092V90.7521H124.072C123.704 91.3857 123.152 91.7127 122.437 91.7127C121.905 91.7127 121.496 91.5696 121.19 91.2835C120.883 90.9973 120.74 90.6294 120.74 90.1593C120.74 89.1578 121.333 88.5856 122.498 88.4221L124.092 88.1972C124.092 87.2979 123.724 86.8278 122.988 86.8278C122.334 86.8278 121.762 87.0527 121.251 87.4819V86.603C121.783 86.276 122.375 86.092 123.07 86.092C124.317 86.092 124.951 86.7665 124.951 88.095V91.59ZM124.092 88.8921L122.805 89.0761C122.416 89.1374 122.11 89.2396 121.905 89.3622C121.701 89.5053 121.599 89.7506 121.599 90.1185C121.599 90.3842 121.701 90.5886 121.885 90.7521C122.069 90.9156 122.314 90.9973 122.621 90.9973C123.05 90.9973 123.397 90.8543 123.663 90.5477C123.949 90.2411 124.072 89.8732 124.072 89.4235V88.8921H124.092Z" fill="black"/>
<path d="M131 91.5901H130.141V88.5447C130.141 87.4001 129.732 86.8483 128.894 86.8483C128.465 86.8483 128.118 87.0118 127.832 87.3388C127.545 87.6658 127.402 88.0746 127.402 88.5651V91.6105H126.544V86.2556H127.402V87.1344H127.423C127.832 86.4599 128.404 86.1125 129.181 86.1125C129.773 86.1125 130.223 86.2964 130.529 86.6848C130.836 87.0527 131 87.6045 131 88.3199V91.5901Z" fill="black"/>
<path d="M6.58896 66.5731C6.65028 66.43 6.73203 66.4504 6.83423 66.6344C7.20212 67.3293 7.5087 68.1673 7.73353 69.1483C7.95836 70.1294 8.01967 71.0696 7.85616 71.9893C7.77441 72.4798 7.6109 72.909 7.38607 73.2769C6.77291 74.2376 5.68966 74.7894 4.1772 74.9529C3.07351 75.0551 2.23552 74.8303 1.66324 74.2989C1.09096 73.7675 0.825253 73.0317 0.886569 72.0711C0.947885 71.1309 1.25447 70.2316 1.86763 69.414C1.94938 69.2914 2.03114 69.271 2.09245 69.3118C2.17421 69.3732 2.15377 69.4549 2.07201 69.6184C1.41798 70.7221 1.29534 71.6214 1.70412 72.2959C2.11289 72.9704 2.91 73.3383 4.09544 73.3178C5.48527 73.2974 6.6094 72.8273 7.44739 71.928C7.46783 71.9076 7.46783 71.8667 7.46783 71.8054C7.48827 71.3148 7.32476 70.6404 7.01818 69.8228C6.7116 69.0053 6.42545 68.3921 6.18019 68.0242C6.09843 67.922 6.078 67.8403 6.11887 67.7585L6.58896 66.5731ZM3.89106 64.2226C3.9115 64.1817 3.95237 64.1613 4.01369 64.1817C4.42246 64.3248 4.8108 64.5496 5.13782 64.8358C5.17869 64.8766 5.19913 64.9175 5.15826 64.9788L4.40202 66.1847C4.36115 66.2256 4.32027 66.2256 4.23851 66.1643C4.15676 66.103 3.78886 65.8781 3.13482 65.4694C3.09395 65.4489 3.09395 65.408 3.11439 65.3672L3.89106 64.2226ZM11.9235 69.1892C11.7191 69.1075 11.6373 68.9848 11.6986 68.8213C11.8621 68.3103 12.0257 67.9629 12.1483 67.8198C12.23 67.7176 12.3527 67.6972 12.4957 67.7789C13.906 68.5556 14.7236 69.598 14.9688 70.9061C15.1119 71.6418 15.071 72.2959 14.8666 72.8477C14.8053 73.0112 14.7031 73.1339 14.5396 73.2361C13.5381 73.747 12.414 74.0127 11.2081 74.0332C10.3701 74.0536 10.0635 73.5018 10.3292 72.4185C10.3701 72.2959 10.4314 72.2346 10.5132 72.2141C10.5745 72.2141 10.6563 72.255 10.7585 72.3368C10.9628 72.5003 11.3512 72.5616 11.9439 72.4798C13.2315 72.3163 14.0695 72.1119 14.4579 71.8667C14.4987 71.8462 14.4987 71.7849 14.4987 71.6827C14.2943 70.5995 13.4359 69.7819 11.9235 69.1892ZM20.0376 69.4958C20.0785 69.3732 20.1603 69.3732 20.3238 69.5367C20.7325 69.9659 21.0391 70.5382 21.2639 71.2331C21.4683 71.9484 21.5501 72.6638 21.4888 73.3791C21.3661 74.2989 20.9982 75.1573 20.3851 75.934C19.7719 76.7311 18.9748 77.2421 17.9733 77.5078C17.7076 77.5895 17.4419 77.5691 17.2171 77.4873C15.9703 77.0785 15.2141 76.772 14.9075 76.588C14.8666 76.5676 14.8462 76.5267 14.8462 76.4858C14.8462 76.4449 14.8666 76.4041 14.9075 76.3836C14.9484 76.3428 14.9893 76.3428 15.0301 76.3632C15.7455 76.588 16.3791 76.6698 16.9105 76.588C17.4419 76.5267 18.0346 76.261 18.7295 75.8318C19.7515 75.1777 20.4668 74.4215 20.9369 73.5426C20.9778 73.4609 20.9982 73.3791 20.9778 73.2974C20.8143 72.7455 20.4055 72.0506 19.731 71.2126C19.6902 71.1718 19.6902 71.1309 19.6902 71.09L20.0376 69.4958ZM25.9648 60.5028C25.7605 60.932 25.5765 61.1568 25.413 61.1977C24.8407 61.3203 24.4319 61.4021 24.1867 61.4838C23.9414 61.5656 23.4918 61.7495 22.8377 62.0357C22.6947 62.097 22.5925 62.0765 22.5311 61.9744C22.4085 61.7904 22.6129 61.5247 23.1443 61.1772C22.756 60.9729 22.5311 60.7685 22.4903 60.5028C22.4085 60.0736 22.5925 59.5626 23.0217 58.9494C23.4713 58.3363 23.9414 58.0706 24.4319 58.1114C24.759 58.1319 24.902 58.3158 24.8612 58.6428C24.8203 58.9699 24.7385 59.256 24.575 59.4604C24.4115 59.6852 24.2889 59.7057 24.1867 59.5217C24.0845 59.3582 23.921 59.256 23.7166 59.2356C23.5122 59.2151 23.3487 59.2764 23.2261 59.4195C23.1034 59.5626 23.1239 59.7057 23.2669 59.8283C23.6144 60.1553 24.1254 60.3393 24.7998 60.3597C24.902 60.3597 25.0655 60.3393 25.2904 60.2779C25.5152 60.2166 25.6583 60.1962 25.74 60.1962C25.8218 60.1962 25.8831 60.2371 25.924 60.2984C25.9853 60.3801 25.9853 60.4414 25.9648 60.5028ZM26.7006 73.1134C26.7824 73.0112 26.8437 72.9704 26.9255 72.9704C28.4584 73.1339 29.4394 73.1134 29.8686 72.9499C29.7664 71.928 29.0102 70.436 27.6204 68.4943C26.6189 67.084 25.8831 66.1643 25.3926 65.6942L25.1677 66.103C25.0247 66.2052 24.902 66.1847 24.7794 66.0417L23.6961 64.8562C23.5326 64.6723 23.4713 64.4679 23.5122 64.243L23.7166 62.8532C23.737 62.7101 23.7779 62.6488 23.8597 62.6284C24.0845 62.6079 24.6772 63.1802 25.6378 64.3657C26.6189 65.5307 27.4569 66.6344 28.1518 67.7176C29.6438 69.9863 30.4409 71.8462 30.5431 73.2565C30.584 73.8492 30.4205 74.1967 30.073 74.2784C29.092 74.5237 28.0087 74.5646 26.8437 74.3806C26.7211 74.3602 26.6393 74.3193 26.6189 74.258C26.4349 73.8084 26.4554 73.42 26.7006 73.1134ZM31.0132 68.6987C30.6657 70.5177 29.9299 71.9689 28.8263 73.0726C28.5197 73.3791 28.1313 73.5426 27.7021 73.5631C27.416 73.5631 27.2934 73.5222 27.2934 73.3996C27.2934 73.2769 27.4364 73.1543 27.6817 73.0112C29.3985 72.0506 30.3592 70.3133 30.6044 67.7789C30.7271 66.4709 30.7475 65.1832 30.6453 63.8956C30.6044 63.4868 30.6249 63.2211 30.7066 63.1189C30.9314 62.7306 31.0541 62.4853 31.095 62.424C31.1358 62.3627 31.1971 62.3218 31.2585 62.3422C31.3198 62.3627 31.3607 62.3831 31.3811 62.4649C31.5446 63.078 31.7081 63.4868 31.8512 63.6503C31.9943 63.8138 32.0147 63.9978 31.8716 64.1204L31.422 64.5701C31.4424 65.7759 31.3198 67.1453 31.0132 68.6987ZM34.1812 63.1598C34.3447 62.7919 34.4265 62.7715 34.4673 63.1189L34.8352 67.1453C35.244 70.7221 35.2236 72.9295 34.7739 73.8084C34.7126 73.931 34.6513 73.9514 34.6104 73.8901C34.5695 73.8288 34.5491 73.747 34.5491 73.6244C34.5695 72.3776 34.5491 71.3761 34.4469 70.6199C34.3447 69.8637 34.2425 68.8622 34.0994 67.595L33.752 64.4883C33.7315 64.3044 33.752 64.1409 33.8337 63.9569L34.1812 63.1598ZM46.5057 71.8462C47.1189 71.7849 47.7729 71.7849 48.4474 71.8667C49.1219 71.9484 49.6124 72.1119 49.8985 72.3776C50.0621 72.5207 50.1029 72.766 50.0621 73.093C49.9803 73.7675 49.8372 74.2376 49.6533 74.4828C49.4693 74.7281 49.1832 75.0142 48.7949 75.2799C46.9349 76.6698 45.0955 77.3442 43.256 77.3034C42.4589 77.2829 41.8048 77.0581 41.2939 76.6289C40.7829 76.1997 40.4559 75.6683 40.3128 75.0142C40.1697 74.3602 40.231 73.5835 40.4763 72.6842C40.7216 71.7849 41.069 71.0287 41.5596 70.4155C41.6413 70.2929 41.7231 70.2929 41.8048 70.3747C41.8866 70.4564 41.8866 70.5586 41.8048 70.6608C41.1508 71.6419 40.8646 72.5003 40.9055 73.2769C41.0077 74.9529 41.9683 75.7909 43.8078 75.7909C45.6473 75.7909 47.4663 75.0142 49.3058 73.4405C49.3467 73.3996 49.3263 73.3791 49.3058 73.3383C48.9788 72.9908 47.9569 72.8069 46.2196 72.7864C46.1378 72.7864 46.1174 72.7455 46.1583 72.6638L46.5057 71.8462ZM45.4838 78.9793C45.5042 78.9385 45.5451 78.918 45.6064 78.9385C45.9743 79.0611 46.3218 79.2655 46.6284 79.5312C46.6692 79.5721 46.6692 79.6129 46.6488 79.6538L45.9539 80.7371C45.9334 80.7779 45.8721 80.7779 45.8108 80.7166C45.7495 80.6758 45.4838 80.5122 45.0137 80.2057L44.4823 81.0641C44.4414 81.105 44.4005 81.105 44.3392 81.0436C44.2779 80.9823 43.9304 80.7779 43.3377 80.41C43.2968 80.3896 43.2968 80.3487 43.3173 80.3283L44.0122 79.2859C44.0326 79.245 44.0735 79.245 44.1348 79.245C44.4414 79.3472 44.7276 79.5107 44.9933 79.7151L45.4838 78.9793ZM46.6284 61.913C46.6488 61.8722 46.6897 61.8517 46.751 61.8722C47.1598 62.0152 47.5481 62.2401 47.8751 62.5262C47.916 62.5671 47.9364 62.608 47.8956 62.6693L47.1393 63.8751C47.0984 63.916 47.0576 63.916 46.9758 63.8547C46.8941 63.7934 46.5262 63.5686 45.8721 63.1598C45.8312 63.1394 45.8312 63.0985 45.8517 63.0576L46.6284 61.913ZM47.916 66.4504C48.1817 66.43 48.4474 66.6139 48.6927 67.0023C49.2445 67.7789 49.5102 68.6578 49.4898 69.598C49.4898 70.0272 49.4489 70.436 49.3467 70.7834C48.9788 72.1324 47.9364 72.8069 46.2196 72.8069C46.1174 72.8069 46.0765 72.7455 46.1174 72.6433C46.1787 72.3981 46.3013 72.1119 46.5057 71.7645C46.5466 71.7032 46.5875 71.6827 46.6692 71.6623C47.9364 71.4579 48.754 71.1104 49.081 70.5995C49.1832 70.4155 49.1628 70.1907 49.0197 69.8841C48.8766 69.598 48.7335 69.4345 48.5905 69.3527C48.3656 69.8024 48.1204 70.0885 47.8956 70.2111C47.2824 70.5382 46.8123 70.4155 46.4444 69.8841C46.1583 69.4345 46.1378 68.8417 46.424 68.1264C46.8532 67.0431 47.3641 66.4709 47.916 66.4504ZM47.8138 68.3512C47.5481 68.1264 47.3233 68.0242 47.1802 68.0242C47.0371 68.0242 46.8941 68.1264 46.751 68.2899C46.6897 68.3717 46.7101 68.4739 46.8532 68.5556C47.1802 68.7804 47.4868 68.76 47.8138 68.4739C47.8547 68.433 47.8547 68.3921 47.8138 68.3512ZM61.0172 71.8462C61.6304 71.7849 62.2844 71.7849 62.9589 71.8667C63.6333 71.9484 64.1239 72.1119 64.41 72.3776C64.5735 72.5207 64.6144 72.766 64.5735 73.093C64.4918 73.7675 64.3487 74.2376 64.1647 74.4828C63.9808 74.7281 63.6947 75.0142 63.3063 75.2799C61.4464 76.6698 59.6069 77.3442 57.7674 77.3034C56.9703 77.2829 56.3163 77.0581 55.8053 76.6289C55.2944 76.1997 54.9673 75.6683 54.8243 75.0142C54.6812 74.3602 54.7425 73.5835 54.9878 72.6842C55.233 71.7849 55.5805 71.0287 56.071 70.4155C56.1528 70.2929 56.2345 70.2929 56.3163 70.3747C56.398 70.4564 56.398 70.5586 56.3163 70.6608C55.6623 71.6419 55.3761 72.5003 55.417 73.2769C55.5192 74.9529 56.4798 75.7909 58.3193 75.7909C60.1588 75.7909 61.9778 75.0142 63.8173 73.4405C63.8582 73.3996 63.8377 73.3791 63.8173 73.3383C63.4903 72.9908 62.4683 72.8069 60.7311 72.7864C60.6493 72.7864 60.6289 72.7455 60.6697 72.6638L61.0172 71.8462ZM59.9953 78.9793C60.0157 78.9385 60.0566 78.918 60.1179 78.9385C60.4858 79.0611 60.8332 79.2655 61.1398 79.5312C61.1807 79.5721 61.1807 79.6129 61.1603 79.6538L60.4653 80.7371C60.4449 80.7779 60.3836 80.7779 60.3223 80.7166C60.261 80.6758 59.9953 80.5122 59.5252 80.2057L58.9938 81.0641C58.9529 81.105 58.912 81.105 58.8507 81.0436C58.7894 80.9823 58.4419 80.7779 57.8492 80.41C57.8083 80.3896 57.8083 80.3487 57.8288 80.3283L58.5237 79.2859C58.5441 79.245 58.585 79.245 58.6463 79.245C58.9529 79.3472 59.239 79.5107 59.5047 79.7151L59.9953 78.9793ZM62.6932 70.7425C62.6319 71.7236 62.3253 72.3368 61.7734 72.5412C61.4464 72.6638 61.0581 72.7455 60.6084 72.7864C60.588 72.6025 60.6084 72.4185 60.6697 72.2755C60.731 72.1119 60.8332 71.9893 60.9559 71.928C60.9968 71.8871 61.1807 71.8054 61.5077 71.6827C61.8347 71.5601 62.0187 71.4579 62.08 71.4375C62.1413 71.3966 62.1618 71.3353 62.1618 71.2331C62.0187 70.1294 61.7939 68.8622 61.5282 67.4519C61.2625 66.0416 61.0989 65.1219 61.0376 64.6927L60.8332 63.8138C60.7924 63.6912 60.7924 63.589 60.8332 63.5277C60.9763 63.1394 61.0581 62.8941 61.0785 62.7919C61.0989 62.6897 61.1603 62.6488 61.242 62.6488C61.3238 62.6488 61.3851 62.6897 61.426 62.7919C61.6099 63.262 61.8552 63.6299 62.1822 63.916C62.2844 64.0182 62.2844 64.1409 62.1822 64.2839L61.8552 64.7949C61.8756 64.8766 62.0187 65.7555 62.3253 67.4519C62.591 69.1279 62.734 70.2316 62.6932 70.7425ZM66.4743 62.4853C66.597 62.3014 66.6583 62.3831 66.7196 62.7306C66.924 64.3657 67.0466 65.7759 67.1079 66.941C67.2101 69.1483 67.2919 70.4768 67.3327 70.9265C67.4145 71.9076 67.9459 72.4185 68.927 72.4798C69.1927 72.5003 69.3153 72.6842 69.254 73.0521C69.1518 73.6244 69.0496 73.9105 68.927 73.9105C67.5371 73.9105 66.8013 73.2769 66.6992 71.9893C66.6174 70.9061 66.5561 69.8024 66.5356 68.7191C66.4948 67.6154 66.4334 66.7366 66.3517 66.0417C66.2495 65.3672 66.1269 64.5905 65.9634 63.7116C65.9225 63.5481 65.9429 63.4051 66.0042 63.3029L66.4743 62.4853ZM70.7256 71.744C71.1957 70.8039 71.7679 70.2111 72.422 69.9659C72.4833 69.9454 72.5446 69.9454 72.5651 70.0068C72.9534 70.579 73.4644 71.1104 74.098 71.6214C74.7316 72.1324 75.4469 72.4185 76.244 72.5003C76.4484 72.5207 76.5506 72.6433 76.5506 72.8886C76.5506 73.5835 76.4484 73.931 76.244 73.931C75.5082 73.931 74.7724 73.6653 74.0162 73.1339C73.9753 73.7062 73.914 74.0332 73.8118 74.1354C73.7096 74.2376 73.6279 74.2784 73.5257 74.258C72.3402 74.1762 71.3592 73.6448 70.5416 72.6842C70.5007 72.6433 70.4599 72.6433 70.419 72.7047C69.8876 73.5018 69.3766 73.9105 68.8656 73.931C68.7635 73.931 68.6817 73.8492 68.6408 73.6653C68.5182 73.1952 68.5182 72.8477 68.6613 72.6433C68.743 72.5412 68.8043 72.4798 68.8861 72.4798C69.908 72.4594 70.5212 72.2141 70.7256 71.744ZM73.076 72.3163C72.8512 72.0302 72.6264 71.6419 72.3811 71.1309C72.3607 71.09 72.3198 71.09 72.2789 71.09C71.9519 71.1718 71.7271 71.2944 71.6044 71.4783C71.5636 71.5397 71.5636 71.601 71.6249 71.6623C71.9928 71.9689 72.4629 72.2141 72.9943 72.3776C73.1169 72.439 73.1373 72.4185 73.076 72.3163ZM76.5097 63.7321C76.4893 63.6094 76.4893 63.5073 76.5097 63.4459C76.6732 63.0576 76.7754 62.8123 76.7959 62.7306C76.8367 62.6488 76.8776 62.5875 76.9594 62.5875C77.0411 62.5875 77.1024 62.6488 77.1229 62.751C77.2864 63.2211 77.5112 63.6094 77.8178 63.916C77.92 64.0182 77.92 64.1409 77.7974 64.2839L77.4499 64.7744C77.5112 65.3672 77.593 65.919 77.6543 66.43C78.0017 69.0461 78.1244 70.6404 78.0222 71.2126C77.6952 72.8886 77.1024 73.7879 76.2645 73.931C76.0805 73.9514 75.9987 73.604 76.0192 72.8886C76.0192 72.6433 76.1009 72.5207 76.2645 72.5003C76.8367 72.439 77.2455 72.1937 77.4703 71.7849C77.4295 70.9469 77.3068 69.6593 77.082 67.8811C76.8572 66.103 76.7141 65.0402 76.6732 64.6314L76.5097 63.7321ZM80.5361 63.1598C80.6997 62.7919 80.7814 62.7715 80.8223 63.1189L81.1902 67.1453C81.599 70.7221 81.5785 72.9295 81.1289 73.8084C81.0675 73.931 81.0062 73.9514 80.9654 73.8901C80.9245 73.8288 80.904 73.747 80.904 73.6244C80.9245 72.3776 80.904 71.3761 80.8018 70.6199C80.6996 69.8637 80.5975 68.8622 80.4544 67.595L80.1069 64.4883C80.0865 64.3044 80.1069 64.1409 80.1887 63.9569L80.5361 63.1598ZM92.7994 62.1174C92.8402 62.0357 92.8811 62.0152 92.9629 62.0152C93.0446 62.0152 93.0855 62.0561 93.1264 62.1583C93.3103 62.6693 93.5351 63.0372 93.7804 63.3233C93.8826 63.4255 93.8622 63.5481 93.76 63.7116C93.6578 63.8752 93.576 63.9978 93.4943 64.0591C93.433 64.1409 93.3921 64.243 93.3921 64.3861C93.433 65.081 93.5351 66.0417 93.6782 67.268C93.8417 68.4943 93.9439 69.4345 93.9848 70.1089C94.0666 71.1922 93.9235 72.1528 93.5556 73.0112C93.3308 73.5427 92.7789 74.0127 91.9001 74.4011C91.0212 74.7894 90.2241 74.9734 89.5087 74.9529C87.4853 74.912 86.4634 74.0332 86.4429 72.2755C86.4225 71.1104 86.8313 70.0068 87.6284 68.9644C87.6897 68.9031 87.7306 68.8622 87.8123 68.8826C87.8736 68.9031 87.9145 68.9235 87.935 69.0053C87.9554 69.0666 87.9349 69.1483 87.8941 69.2096C87.3218 70.2111 87.0765 70.9469 87.1174 71.4375C87.2605 72.7455 88.2415 73.3587 90.0197 73.2974C91.5526 73.2361 92.6563 72.7864 93.3308 71.9076C93.3103 71.2535 93.1877 70.0681 92.9629 68.3717C92.738 66.6752 92.595 65.081 92.4723 63.589L92.411 63.0576C92.411 62.9554 92.4315 62.8941 92.4519 62.8328L92.7994 62.1174ZM96.2535 62.4853C96.3761 62.3014 96.4374 62.3831 96.4988 62.7306C96.7031 64.3657 96.8258 65.7759 96.8871 66.941C96.9893 69.1483 97.071 70.4768 97.1119 70.9265C97.1937 71.9076 97.7251 72.4185 98.7061 72.4798C98.9718 72.5003 99.0945 72.6842 99.0332 73.0521C98.931 73.6244 98.8288 73.9105 98.7061 73.9105C97.3163 73.9105 96.5805 73.2769 96.4783 71.9893C96.3966 70.9061 96.3353 69.8024 96.3148 68.7191C96.2739 67.6154 96.2126 66.7366 96.1309 66.0417C96.0287 65.3672 95.906 64.5905 95.7425 63.7116C95.7016 63.5481 95.7221 63.4051 95.7834 63.3029L96.2535 62.4853ZM100.321 69.5162C100.607 68.8622 100.73 68.9235 100.73 69.6797C100.709 69.9863 100.852 70.3542 101.118 70.8039C101.322 71.1513 101.568 71.3966 101.854 71.5601C101.956 71.6214 102.201 71.7032 102.61 71.8054C102.917 71.8871 103.162 71.9893 103.346 72.0711C103.53 72.1733 103.611 72.3163 103.611 72.5003C103.591 73.0726 103.55 73.5018 103.468 73.8084C103.427 73.9719 103.346 74.0127 103.203 73.931C102.222 73.3996 101.588 73.1339 101.261 73.1134C100.954 73.1134 100.525 73.2361 99.9529 73.5018C99.4011 73.7675 98.9514 73.8901 98.6244 73.8901C98.5017 73.8901 98.3996 73.7675 98.3178 73.5426C98.236 73.2974 98.2156 73.0726 98.2769 72.8273C98.3178 72.582 98.4404 72.4594 98.6244 72.4594C99.5032 72.3776 100.137 72.1937 100.525 71.928C100.137 71.1922 100.055 70.3747 100.321 69.5162ZM101.118 63.1802C101.138 63.1394 101.179 63.1189 101.241 63.1394C101.608 63.262 101.956 63.4664 102.262 63.7321C102.303 63.773 102.303 63.8138 102.283 63.8547L101.588 64.938C101.568 64.9788 101.506 64.9788 101.445 64.9175C101.384 64.8766 101.118 64.7131 100.648 64.4066L100.116 65.265C100.076 65.3059 100.035 65.3059 99.9733 65.2445C99.912 65.1832 99.5646 64.9788 98.9718 64.6109C98.931 64.5905 98.931 64.5496 98.9514 64.5292L99.6463 63.4868C99.6668 63.4459 99.7076 63.4459 99.769 63.4459C100.076 63.5481 100.362 63.7116 100.627 63.916L101.118 63.1802ZM101.384 69.2096C100.995 69.4958 100.791 69.7819 100.791 70.0681C100.791 70.4564 100.709 70.7017 100.525 70.7834C100.3 70.8856 100.198 70.7221 100.219 70.2929C100.239 69.7411 100.341 69.2914 100.546 68.9439C101.138 67.8811 101.792 67.3702 102.508 67.4315C102.733 67.4519 102.876 67.5541 102.998 67.7585C103.591 68.8622 104.327 69.3527 105.185 69.271C105.41 69.2505 105.533 69.3732 105.553 69.6389C105.574 70.0068 105.471 70.3133 105.247 70.5586C105.124 70.6812 105.022 70.7425 104.899 70.7221C104.327 70.7017 103.816 70.5177 103.387 70.1703C103.1 69.9454 102.753 69.5775 102.324 69.0461C102.119 68.8213 101.813 68.8622 101.384 69.2096ZM112.134 67.0636C112.114 67.0023 112.277 66.7161 112.604 66.2052C112.645 66.1438 112.707 66.1643 112.768 66.3074C112.85 66.43 112.891 66.6957 112.911 67.1045C112.931 67.5132 112.891 67.922 112.809 68.3103C112.584 69.1688 112.318 69.598 111.971 69.6184C111.194 69.6593 110.54 69.3732 109.988 68.8213C109.62 69.7002 109.109 70.2111 108.455 70.3951C107.801 70.5586 107.147 70.2929 106.473 69.5775C105.921 70.3747 105.39 70.763 104.899 70.763C104.797 70.763 104.695 70.5382 104.613 70.0681C104.531 69.598 104.633 69.3527 104.899 69.3323C105.921 69.2301 106.718 68.6987 107.27 67.7176C107.29 67.6563 107.331 67.6359 107.393 67.6359C107.454 67.6359 107.495 67.6563 107.515 67.6972C107.577 67.7789 107.495 68.0038 107.29 68.3921C107.474 68.7191 107.904 68.8826 108.578 68.8826C109.396 68.9031 110.029 68.1673 110.458 66.7366C110.479 66.6752 110.52 66.6548 110.561 66.6344C110.622 66.6344 110.663 66.6548 110.683 66.6957C110.724 66.7366 110.724 66.7979 110.724 66.8592L110.561 67.5337C110.785 67.7585 111.112 67.9424 111.542 68.0651C111.971 68.1877 112.216 68.1673 112.277 68.0242C112.359 67.8403 112.298 67.5337 112.134 67.0636ZM110.601 63.5481C110.622 63.5073 110.663 63.4868 110.724 63.5073C111.092 63.6299 111.439 63.8343 111.746 64.1C111.787 64.1409 111.787 64.1817 111.766 64.2226L111.092 65.3059C111.072 65.3467 111.01 65.3467 110.949 65.2854C110.888 65.2445 110.663 65.1015 110.234 64.8358L109.743 65.6329C109.702 65.6738 109.661 65.6738 109.6 65.6124C109.539 65.5511 109.191 65.3467 108.598 64.9788C108.558 64.9584 108.558 64.9175 108.578 64.8971L109.273 63.8547C109.293 63.8138 109.334 63.8138 109.396 63.8138C109.682 63.916 109.927 64.0387 110.172 64.2022L110.601 63.5481ZM109.62 62.0561C109.641 62.0152 109.682 62.0152 109.743 62.0152C110.111 62.1379 110.458 62.3422 110.765 62.6079C110.806 62.6488 110.806 62.6897 110.785 62.7306L110.111 63.8138C110.09 63.8547 110.029 63.8547 109.968 63.7934C109.907 63.7321 109.559 63.5277 108.966 63.1598C108.925 63.1394 108.925 63.0985 108.946 63.078L109.62 62.0561ZM118.123 73.1134C118.205 73.0112 118.266 72.9704 118.348 72.9704C119.881 73.1339 120.862 73.1134 121.291 72.9499C121.189 71.928 120.432 70.436 119.043 68.4943C118.041 67.084 117.305 66.1643 116.815 65.6942L116.59 66.103C116.447 66.2052 116.324 66.1847 116.202 66.0417L115.118 64.8562C114.955 64.6723 114.894 64.4679 114.934 64.243L115.139 62.8532C115.159 62.7101 115.2 62.6488 115.282 62.6284C115.507 62.6079 116.099 63.1802 117.06 64.3657C118.041 65.5307 118.879 66.6344 119.574 67.7176C121.066 69.9863 121.863 71.8462 121.965 73.2565C122.006 73.8492 121.843 74.1967 121.495 74.2784C120.514 74.5237 119.431 74.5646 118.266 74.3806C118.143 74.3602 118.062 74.3193 118.041 74.258C117.857 73.8084 117.878 73.42 118.123 73.1134ZM122.435 68.6987C122.088 70.5177 121.352 71.9689 120.249 73.0726C119.942 73.3791 119.554 73.5426 119.124 73.5631C118.838 73.5631 118.716 73.5222 118.716 73.3996C118.716 73.2769 118.859 73.1543 119.104 73.0112C120.821 72.0506 121.781 70.3133 122.027 67.7789C122.149 66.4709 122.17 65.1832 122.068 63.8956C122.027 63.4868 122.047 63.2211 122.129 63.1189C122.354 62.7306 122.476 62.4853 122.517 62.424C122.558 62.3627 122.619 62.3218 122.681 62.3422C122.742 62.3627 122.783 62.3831 122.803 62.4649C122.967 63.078 123.13 63.4868 123.273 63.6503C123.417 63.8138 123.437 63.9978 123.294 64.1204L122.844 64.5701C122.865 65.7759 122.742 67.1453 122.435 68.6987ZM125.603 63.1598C125.767 62.7919 125.849 62.7715 125.89 63.1189L126.257 67.1453C126.666 70.7221 126.646 72.9295 126.196 73.8084C126.135 73.931 126.074 73.9514 126.033 73.8901C125.992 73.8288 125.971 73.747 125.971 73.6244C125.992 72.3776 125.971 71.3761 125.869 70.6199C125.767 69.8637 125.665 68.8622 125.522 67.595L125.174 64.4883C125.154 64.3044 125.174 64.1409 125.256 63.9569L125.603 63.1598Z" fill="#333333"/>
<path d="M3.11439 65.3875C3.09395 65.4284 3.09395 65.4489 3.13483 65.4897C3.8093 65.8985 4.1772 66.1233 4.23851 66.1847C4.32027 66.246 4.36115 66.246 4.40202 66.2051L5.15826 64.9992C5.19913 64.9379 5.17869 64.897 5.13782 64.8561C4.8108 64.57 4.42246 64.3452 4.01369 64.2021C3.95237 64.1817 3.9115 64.1817 3.89106 64.243L3.11439 65.3875ZM6.58896 66.573L6.09843 67.7584C6.05756 67.8402 6.078 67.9219 6.15975 68.0241C6.40502 68.392 6.69116 68.9848 6.99774 69.8227C7.30432 70.6607 7.46783 71.3148 7.44739 71.8053C7.44739 71.8666 7.44739 71.9075 7.42695 71.9279C6.58896 72.8477 5.46484 73.3178 4.075 73.3178C2.88956 73.3178 2.07201 72.9703 1.68368 72.2958C1.2749 71.6009 1.39754 70.7016 2.05157 69.6184C2.13333 69.4753 2.15377 69.3731 2.07201 69.3118C1.99026 69.2505 1.94938 69.2913 1.86763 69.414C1.2749 70.2315 0.947885 71.1308 0.886569 72.071C0.825253 73.0112 1.09096 73.7674 1.66324 74.2988C2.23552 74.8302 3.07351 75.0551 4.1772 74.9529C5.7101 74.8098 6.77291 74.2579 7.38607 73.2769C7.63134 72.909 7.77441 72.4798 7.85616 71.9892C7.99923 71.0695 7.95836 70.1293 7.73353 69.1483C7.5087 68.1672 7.20212 67.3292 6.83423 66.6343C6.73203 66.4299 6.65028 66.4299 6.58896 66.573Z" stroke="#333333" stroke-width="0.75" stroke-miterlimit="10"/>
<path d="M11.9035 69.1892C13.4364 69.7819 14.2948 70.6199 14.4788 71.6622C14.4992 71.7644 14.4788 71.8258 14.4379 71.8462C14.0495 72.0915 13.1911 72.2958 11.9239 72.4594C11.3312 72.5411 10.9429 72.5002 10.7385 72.3163C10.6363 72.2345 10.5545 72.1937 10.4932 72.1937C10.391 72.2141 10.3297 72.2754 10.3093 72.398C10.064 73.4813 10.3501 74.0127 11.1881 74.0127C12.394 73.9923 13.5181 73.7266 14.5196 73.2156C14.6831 73.1338 14.8058 73.0112 14.8466 72.8272C15.051 72.2754 15.0715 71.6214 14.9488 70.8856C14.7036 69.5775 13.886 68.5351 12.4758 67.7585C12.3327 67.6767 12.2101 67.6767 12.1283 67.7993C11.9852 67.9628 11.8422 68.2899 11.6787 68.8008C11.6173 68.9848 11.6991 69.087 11.9035 69.1892Z" stroke="#333333" stroke-width="0.75" stroke-miterlimit="10"/>
<path d="M19.6496 71.09C19.6292 71.1308 19.6496 71.1513 19.6905 71.2126C20.365 72.0506 20.7738 72.7455 20.9373 73.2973C20.9577 73.3791 20.9373 73.4608 20.8964 73.5426C20.4467 74.401 19.7109 75.1777 18.689 75.8317C18.0145 76.2609 17.4014 76.5266 16.87 76.588C16.3386 76.6493 15.7254 76.5675 14.9896 76.3631C14.9283 76.3427 14.8874 76.3631 14.867 76.3836C14.8261 76.4245 14.8057 76.4449 14.8057 76.4858C14.8057 76.5266 14.8261 76.5675 14.867 76.588C15.1736 76.7719 15.9298 77.0785 17.1766 77.4873C17.4218 77.569 17.6671 77.569 17.9328 77.5077C18.9343 77.242 19.7314 76.731 20.3445 75.9339C20.9577 75.1368 21.3256 74.2988 21.4482 73.3791C21.5096 72.6637 21.4278 71.9484 21.2234 71.233C21.019 70.5177 20.7124 69.9454 20.2832 69.5366C20.1197 69.3731 20.038 69.3731 19.9971 69.4957L19.6496 71.09Z" stroke="#333333" stroke-width="0.75" stroke-miterlimit="10"/>
<path d="M25.9451 60.5028C25.9655 60.4415 25.9655 60.3801 25.9247 60.3188C25.8838 60.2575 25.8225 60.2166 25.7407 60.2166C25.659 60.2166 25.4954 60.2371 25.2911 60.2984C25.0662 60.3597 24.9027 60.3801 24.8005 60.3801C24.1261 60.3597 23.6151 60.1758 23.2676 59.8487C23.1246 59.7057 23.1246 59.583 23.2267 59.44C23.3494 59.2969 23.5129 59.2356 23.7173 59.256C23.9217 59.2765 24.0852 59.3786 24.1874 59.5422C24.2896 59.7057 24.4326 59.6852 24.5757 59.4808C24.7392 59.256 24.821 58.9903 24.8618 58.6633C24.9027 58.3363 24.7597 58.1523 24.4326 58.1319C23.9217 58.091 23.4516 58.3772 23.0224 58.9699C22.5727 59.583 22.4092 60.094 22.491 60.5232C22.5318 60.7685 22.7567 60.9933 23.145 61.1977C22.5931 61.5247 22.3888 61.7904 22.5318 61.9948C22.5931 62.097 22.6953 62.097 22.8384 62.0561C23.4925 61.77 23.9421 61.586 24.1874 61.5043C24.4326 61.4225 24.821 61.3408 25.4137 61.2181C25.5568 61.1568 25.7611 60.9116 25.9451 60.5028ZM26.6809 73.1135C26.4356 73.42 26.4152 73.8084 26.5991 74.2785C26.64 74.3398 26.7013 74.3806 26.824 74.4011C27.989 74.585 29.0722 74.5442 30.0533 74.2989C30.4007 74.2171 30.5642 73.8697 30.5234 73.277C30.4212 71.8667 29.6241 70.0068 28.132 67.7381C27.4371 66.6753 26.5991 65.5511 25.6181 64.3861C24.637 63.2211 24.0443 62.6488 23.8399 62.6488C23.7582 62.6488 23.7173 62.7306 23.6968 62.8737L23.4925 64.2635C23.4516 64.4883 23.5333 64.7131 23.6764 64.8767L24.7597 66.0621C24.8823 66.2052 25.0049 66.2256 25.148 66.1234L25.3728 65.7146C25.8633 66.1847 26.5991 67.1045 27.6006 68.5147C28.9905 70.4564 29.7263 71.928 29.8489 72.9704C29.4197 73.1339 28.4182 73.1339 26.9057 72.9908C26.8444 72.9704 26.7626 73.0113 26.6809 73.1135Z" stroke="#333333" stroke-width="0.75" stroke-miterlimit="10"/>
<path d="M30.9932 68.6987C31.2998 67.1453 31.4224 65.7555 31.3815 64.5701L31.8312 64.1204C31.9743 63.9773 31.9538 63.8138 31.8108 63.6503C31.6472 63.4664 31.5042 63.078 31.3407 62.4649C31.3202 62.4036 31.2794 62.3627 31.218 62.3627C31.1567 62.3422 31.0954 62.3831 31.0545 62.4444C31.0136 62.5057 30.891 62.751 30.6662 63.1393C30.6049 63.262 30.5844 63.5072 30.6049 63.916C30.7071 65.2037 30.6866 66.4913 30.564 67.7994C30.3187 70.3338 29.3581 72.0711 27.6413 73.0317C27.396 73.1747 27.2529 73.2974 27.2529 73.42C27.2529 73.5426 27.3756 73.5835 27.6617 73.5835C28.0909 73.5631 28.4793 73.3996 28.7858 73.093C29.91 71.9893 30.6458 70.5382 30.9932 68.6987Z" stroke="#333333" stroke-width="0.75" stroke-miterlimit="10"/>
<path d="M33.8137 63.9774C33.732 64.1614 33.7115 64.3453 33.732 64.5088L34.0794 67.6155C34.2225 68.8827 34.3247 69.8842 34.4269 70.6404C34.5291 71.3967 34.5495 72.3981 34.5291 73.6449C34.5291 73.7675 34.5495 73.8493 34.5904 73.9106C34.6313 73.9719 34.6926 73.9311 34.7539 73.8289C35.2036 72.95 35.224 70.7222 34.8152 67.1658L34.4473 63.1394C34.4065 62.792 34.3043 62.792 34.1612 63.1803L33.8137 63.9774Z" stroke="#333333" stroke-width="0.75" stroke-miterlimit="10"/>
<path d="M44.9732 79.7356C44.7075 79.5312 44.4214 79.3677 44.1148 79.2655C44.0535 79.2451 44.0126 79.2655 43.9921 79.3064L43.2972 80.3488C43.2768 80.3896 43.2768 80.4101 43.3177 80.4305C43.9104 80.7984 44.2578 81.0028 44.3192 81.0641C44.3805 81.1254 44.4418 81.1254 44.4622 81.0846L44.9936 80.2261C45.4842 80.5123 45.7499 80.6758 45.7907 80.7371C45.8521 80.7984 45.9134 80.7984 45.9338 80.7575L46.6287 79.6743C46.6492 79.6334 46.6492 79.5925 46.6083 79.5516C46.3017 79.2859 45.9747 79.0816 45.5864 78.9589C45.525 78.9385 45.5046 78.9385 45.4637 78.9998L44.9732 79.7356ZM46.1178 72.7047C46.0769 72.7864 46.0973 72.8273 46.1791 72.8273C47.9164 72.8478 48.9383 73.0317 49.2653 73.3792C49.3062 73.42 49.3062 73.4405 49.2653 73.4814C47.4258 75.0551 45.6068 75.8318 43.7673 75.8318C41.9278 75.8318 40.9672 74.9938 40.865 73.2974C40.8241 72.5412 41.1307 71.6623 41.7643 70.6813C41.8256 70.5791 41.8256 70.4769 41.7643 70.3951C41.6826 70.3134 41.6213 70.3134 41.5191 70.436C41.049 71.0492 40.6811 71.8054 40.4358 72.7047C40.1905 73.604 40.1292 74.3807 40.2723 75.0347C40.3949 75.6887 40.722 76.2201 41.2534 76.6494C41.7643 77.0786 42.4184 77.3034 43.2155 77.3238C45.055 77.3851 46.8944 76.7107 48.7544 75.3004C49.1427 75.0143 49.4288 74.7486 49.6128 74.5033C49.7967 74.258 49.9398 73.7879 50.0216 73.1135C50.0624 72.7864 50.0011 72.5412 49.858 72.3981C49.5719 72.1324 49.0814 71.9485 48.4069 71.8871C47.7324 71.8054 47.0784 71.8054 46.4652 71.8667L46.1178 72.7047Z" stroke="#333333" stroke-width="0.75" stroke-miterlimit="10"/>
<path d="M45.8523 63.0577C45.8319 63.0985 45.8319 63.119 45.8727 63.1598C46.5472 63.5686 46.9151 63.7934 46.9764 63.8548C47.0582 63.9161 47.0991 63.9161 47.1399 63.8752L47.8962 62.6693C47.937 62.608 47.9166 62.5671 47.8757 62.5262C47.5487 62.2401 47.1604 62.0153 46.7516 61.8722C46.6903 61.8518 46.6494 61.8518 46.629 61.9131L45.8523 63.0577ZM47.794 68.3513C47.8348 68.3921 47.8348 68.433 47.794 68.4739C47.4669 68.76 47.1604 68.8009 46.8334 68.5557C46.7107 68.4535 46.6698 68.3717 46.7312 68.29C46.8742 68.106 47.0173 68.0243 47.1604 68.0243C47.3239 68.0243 47.5283 68.1264 47.794 68.3513ZM47.9166 66.4505C47.3648 66.4709 46.8538 67.0432 46.4246 68.1469C46.1384 68.8622 46.1384 69.455 46.445 69.9046C46.8129 70.436 47.283 70.5587 47.8962 70.2316C48.1414 70.109 48.3663 69.8229 48.5911 69.3732C48.7341 69.455 48.8772 69.6185 49.0203 69.9046C49.1838 70.2112 49.2042 70.436 49.0816 70.62C48.7546 71.1309 47.937 71.4988 46.6698 71.6828C46.5881 71.7032 46.5472 71.7237 46.5063 71.785C46.3019 72.1324 46.1793 72.4186 46.118 72.6638C46.0771 72.7865 46.118 72.8273 46.2202 72.8273C47.937 72.8273 48.9794 72.1529 49.3473 70.8039C49.4495 70.436 49.4904 70.0477 49.4904 69.6185C49.4904 68.6579 49.2247 67.7994 48.6933 67.0228C48.4276 66.614 48.1823 66.43 47.9166 66.4505Z" stroke="#333333" stroke-width="0.75" stroke-miterlimit="10"/>
<path d="M59.4849 79.7356C59.2192 79.5312 58.9331 79.3677 58.6265 79.2655C58.5652 79.2451 58.5243 79.2655 58.5039 79.3064L57.8089 80.3488C57.7885 80.3896 57.7885 80.4101 57.8294 80.4305C58.4221 80.7984 58.7696 81.0028 58.8309 81.0641C58.8922 81.1254 58.9535 81.1254 58.974 81.0846L59.5054 80.2261C59.9959 80.5123 60.2616 80.6758 60.3025 80.7371C60.3638 80.7984 60.4251 80.7984 60.4455 80.7575L61.1405 79.6743C61.1609 79.6334 61.1609 79.5925 61.12 79.5516C60.8134 79.2859 60.4864 79.0816 60.0981 78.9589C60.0368 78.9385 60.0163 78.9385 59.9754 78.9998L59.4849 79.7356ZM60.6295 72.7047C60.5886 72.7864 60.609 72.8273 60.6908 72.8273C62.4281 72.8478 63.45 73.0317 63.777 73.3792C63.8179 73.42 63.8179 73.4405 63.777 73.4814C61.9376 75.0551 60.1185 75.8318 58.279 75.8318C56.4396 75.8318 55.4789 74.9938 55.3767 73.2974C55.3359 72.5412 55.6424 71.6623 56.276 70.6813C56.3374 70.5791 56.3374 70.4769 56.276 70.3951C56.1943 70.3134 56.133 70.3134 56.0308 70.436C55.5607 71.0492 55.1928 71.8054 54.9475 72.7047C54.7023 73.604 54.641 74.3807 54.784 75.0347C54.9067 75.6887 55.2337 76.2201 55.7651 76.6494C56.276 77.0786 56.9301 77.3034 57.7272 77.3238C59.5667 77.3851 61.4062 76.7107 63.2661 75.3004C63.6544 75.0143 63.9406 74.7486 64.1245 74.5033C64.3085 74.258 64.4515 73.7879 64.5333 73.1135C64.5742 72.7864 64.5128 72.5412 64.3698 72.3981C64.0836 72.1324 63.5931 71.9485 62.9186 71.8871C62.2441 71.8054 61.5901 71.8054 60.9769 71.8667L60.6295 72.7047Z" stroke="#333333" stroke-width="0.75" stroke-miterlimit="10"/>
<path d="M62.2851 67.4315C61.9989 65.735 61.8354 64.8562 61.815 64.7744L62.142 64.2635C62.2646 64.1204 62.2646 63.9978 62.142 63.8956C61.8354 63.6094 61.5697 63.2415 61.3858 62.7714C61.3449 62.6692 61.2836 62.6079 61.2018 62.6284C61.1201 62.6284 61.0792 62.6692 61.0383 62.7714C61.0179 62.8736 60.9361 63.0985 60.793 63.5072C60.7726 63.5686 60.7726 63.6707 60.793 63.7934L60.9974 64.6722C61.0587 65.1014 61.2222 66.0212 61.488 67.4315C61.7537 68.8417 61.958 70.1089 62.1216 71.2126C62.142 71.3148 62.1011 71.3761 62.0398 71.417C61.9785 71.4579 61.7945 71.5396 61.4675 71.6623C61.1405 71.7849 60.9565 71.8667 60.9157 71.9075C60.793 71.9893 60.6908 72.0915 60.6295 72.255C60.5682 72.4185 60.5478 72.582 60.5682 72.766C61.0179 72.7251 61.4062 72.6433 61.7332 72.5207C62.2851 72.2959 62.5916 71.7031 62.653 70.7221C62.7143 70.2316 62.5916 69.1279 62.2851 67.4315Z" stroke="#333333" stroke-width="0.75" stroke-miterlimit="10"/>
<path d="M65.9635 63.3028C65.9022 63.405 65.8818 63.5481 65.9226 63.7116C66.0861 64.5905 66.2088 65.3671 66.311 66.0416C66.4132 66.7161 66.4745 67.6154 66.4949 68.7191C66.5154 69.8228 66.5767 70.906 66.6584 71.9893C66.7606 73.2769 67.4964 73.9105 68.8862 73.9105C69.0089 73.9105 69.1111 73.6244 69.2133 73.0521C69.2746 72.6842 69.1724 72.4798 68.8862 72.4798C67.9052 72.4185 67.3738 71.9075 67.292 70.9265C67.2512 70.4768 67.1898 69.1483 67.0672 66.9409C67.0059 65.7759 66.8833 64.3656 66.6789 62.7305C66.638 62.3831 66.5562 62.3013 66.4336 62.4853L65.9635 63.3028Z" stroke="#333333" stroke-width="0.75" stroke-miterlimit="10"/>
<path d="M73.0561 72.3164C73.1378 72.4186 73.097 72.439 72.9539 72.3981C72.4225 72.2346 71.9728 71.9893 71.5845 71.6828C71.5232 71.6214 71.5232 71.5806 71.5641 71.4988C71.6867 71.3149 71.9115 71.1922 72.2385 71.1105C72.2999 71.1105 72.3407 71.1105 72.3407 71.1514C72.6064 71.6214 72.8313 72.0302 73.0561 72.3164ZM70.7261 71.7441C70.5012 72.2142 69.8881 72.4594 68.8866 72.5003C68.8048 72.5003 68.7435 72.5616 68.6618 72.6638C68.5187 72.8682 68.5187 73.1952 68.6413 73.6858C68.6822 73.8697 68.764 73.9515 68.8662 73.9515C69.3771 73.931 69.8881 73.5222 70.4195 72.7251C70.4604 72.6638 70.5012 72.6638 70.5421 72.7047C71.3392 73.6653 72.3407 74.1967 73.5262 74.2785C73.6284 74.2785 73.7101 74.2376 73.8123 74.1558C73.9145 74.0536 73.9758 73.7266 74.0167 73.1543C74.7729 73.6858 75.5087 73.9515 76.2445 73.9515C76.4489 73.9515 76.5511 73.604 76.5511 72.9091C76.5511 72.6638 76.4489 72.5412 76.2445 72.5207C75.4474 72.439 74.7116 72.1529 74.0985 71.6419C73.4649 71.1309 72.9539 70.5995 72.5656 70.0272C72.5247 69.9864 72.4838 69.9659 72.4225 69.9864C71.7684 70.2112 71.1962 70.8039 70.7261 71.7441Z" stroke="#333333" stroke-width="0.75" stroke-miterlimit="10"/>
<path d="M76.5102 63.732L76.6737 64.6313C76.7146 65.0197 76.8577 66.1029 77.0825 67.8811C77.3073 69.6592 77.4504 70.9469 77.4708 71.7849C77.246 72.1936 76.8372 72.4389 76.2649 72.5002C76.1014 72.5207 76.0197 72.6433 76.0197 72.8886C75.9992 73.6039 76.081 73.9514 76.2649 73.9309C77.1029 73.7879 77.6956 72.8886 78.0227 71.2126C78.1453 70.6403 78.0227 69.0461 77.6548 66.4299C77.5934 65.919 77.5117 65.3671 77.4504 64.7744L77.7978 64.2839C77.9205 64.1408 77.9205 64.0182 77.8183 63.916C77.5117 63.6094 77.2869 63.2211 77.1234 62.751C77.0825 62.6488 77.0212 62.5875 76.9598 62.5875C76.8781 62.5875 76.8372 62.6283 76.7963 62.7305C76.7555 62.8123 76.6737 63.0575 76.5102 63.4459C76.4898 63.5072 76.4898 63.6094 76.5102 63.732Z" stroke="#333333" stroke-width="0.75" stroke-miterlimit="10"/>
<path d="M80.1887 63.9774C80.107 64.1614 80.0865 64.3453 80.107 64.5088L80.4544 67.6155C80.5975 68.8827 80.6997 69.8842 80.8019 70.6404C80.9041 71.3967 80.9245 72.3981 80.9041 73.6449C80.9041 73.7675 80.9245 73.8493 80.9654 73.9106C81.0063 73.9719 81.0676 73.9311 81.1289 73.8289C81.5786 72.95 81.599 70.7222 81.1902 67.1658L80.8223 63.1394C80.7815 62.792 80.6793 62.792 80.5362 63.1803L80.1887 63.9774Z" stroke="#333333" stroke-width="0.75" stroke-miterlimit="10"/>
<path d="M92.4931 62.8123C92.4727 62.8736 92.4523 62.9554 92.4523 63.0371L92.5136 63.5685C92.6158 65.0606 92.7793 66.6548 93.0041 68.3512C93.2289 70.0476 93.3516 71.2331 93.372 71.8871C92.6975 72.766 91.5734 73.2156 90.0609 73.2769C88.2828 73.3382 87.3221 72.7251 87.1586 71.417C87.0973 70.9469 87.363 70.2111 87.9353 69.2096C87.9762 69.1279 87.9966 69.0665 87.9762 69.0052C87.9557 68.9439 87.9149 68.903 87.8536 68.8826C87.7922 68.8826 87.7309 68.903 87.6696 68.9644C86.8521 70.0272 86.4637 71.1309 86.4842 72.2754C86.5046 74.0331 87.5265 74.912 89.55 74.9529C90.2449 74.9733 91.042 74.7689 91.9413 74.401C92.8202 74.0127 93.372 73.5631 93.5968 73.0112C93.9647 72.1528 94.1078 71.1922 94.026 70.1089C93.9852 69.4344 93.883 68.4943 93.7195 67.2679C93.5559 66.0416 93.4742 65.081 93.4333 64.3861C93.4333 64.243 93.4538 64.1408 93.5355 64.0591C93.5968 63.9773 93.699 63.8547 93.8012 63.7116C93.9034 63.5481 93.9034 63.4255 93.8217 63.3233C93.5764 63.0576 93.3516 62.6692 93.1676 62.1583C93.1267 62.0561 93.0859 62.0152 93.0041 62.0152C92.9224 62.0152 92.8815 62.0561 92.8406 62.1174L92.4931 62.8123Z" stroke="#333333" stroke-width="0.75" stroke-miterlimit="10"/>
<path d="M95.7428 63.3028C95.6815 63.405 95.6611 63.5481 95.7019 63.7116C95.8654 64.5905 95.9881 65.3671 96.0903 66.0416C96.1925 66.7161 96.2538 67.6154 96.2742 68.7191C96.2947 69.8228 96.356 70.906 96.4377 71.9893C96.5399 73.2769 97.2757 73.9105 98.6655 73.9105C98.7882 73.9105 98.8904 73.6244 98.9926 73.0521C99.0539 72.6842 98.9517 72.4798 98.6655 72.4798C97.6845 72.4185 97.1531 71.9075 97.0713 70.9265C97.0304 70.4768 96.9691 69.1483 96.8465 66.9409C96.7852 65.7759 96.6625 64.3656 96.4582 62.7305C96.4173 62.3831 96.3355 62.3013 96.2129 62.4853L95.7428 63.3028Z" stroke="#333333" stroke-width="0.75" stroke-miterlimit="10"/>
<path d="M100.321 69.5162C100.055 70.3746 100.137 71.1922 100.566 71.9688C100.178 72.2345 99.5442 72.4185 98.6653 72.5002C98.4814 72.5207 98.3587 72.6433 98.3179 72.8681C98.277 73.1134 98.277 73.3382 98.3587 73.5835C98.4405 73.8288 98.5427 73.9309 98.6653 73.9309C98.9923 73.9309 99.442 73.8083 99.9938 73.5426C100.546 73.2769 100.975 73.1543 101.302 73.1543C101.608 73.1543 102.263 73.4404 103.244 73.9718C103.387 74.0536 103.468 73.9923 103.509 73.8492C103.591 73.5426 103.632 73.093 103.652 72.5411C103.652 72.3572 103.571 72.2141 103.387 72.1119C103.203 72.0097 102.957 71.928 102.651 71.8462C102.242 71.744 101.997 71.6622 101.895 71.6009C101.608 71.4374 101.363 71.1717 101.159 70.8447C100.893 70.3951 100.75 70.0272 100.771 69.7206C100.73 68.9235 100.607 68.8622 100.321 69.5162Z" stroke="#333333" stroke-width="0.75" stroke-miterlimit="10"/>
<path d="M100.587 63.9365C100.321 63.7322 100.035 63.5686 99.7284 63.4665C99.6671 63.446 99.6262 63.4665 99.6058 63.5073L98.9109 64.5497C98.8904 64.5906 98.8904 64.611 98.9313 64.6315C99.524 64.9994 99.8715 65.2037 99.9328 65.2651C99.9941 65.3264 100.055 65.3264 100.076 65.2855L100.607 64.4271C101.098 64.7132 101.364 64.8767 101.404 64.938C101.466 64.9994 101.527 64.9994 101.547 64.9585L102.242 63.8752C102.263 63.8343 102.263 63.7935 102.222 63.7526C101.915 63.4869 101.588 63.2825 101.2 63.1599C101.139 63.1394 101.118 63.1599 101.077 63.2008L100.587 63.9365ZM101.384 69.2097C101.813 68.8827 102.12 68.8214 102.304 69.0462C102.733 69.5776 103.08 69.966 103.367 70.1703C103.796 70.4974 104.286 70.6813 104.879 70.7222C105.002 70.7222 105.124 70.6609 105.226 70.5587C105.451 70.3134 105.553 70.0068 105.533 69.6389C105.513 69.3732 105.39 69.2506 105.165 69.271C104.307 69.3732 103.571 68.8623 102.978 67.7586C102.876 67.5746 102.712 67.452 102.488 67.4316C101.772 67.3702 101.118 67.8812 100.526 68.944C100.342 69.271 100.219 69.7207 100.199 70.293C100.178 70.7017 100.28 70.8653 100.505 70.7835C100.689 70.7017 100.771 70.4769 100.771 70.0681C100.791 69.782 100.996 69.4959 101.384 69.2097Z" stroke="#333333" stroke-width="0.75" stroke-miterlimit="10"/>
<path d="M110.132 64.2227C109.907 64.0592 109.641 63.9161 109.355 63.8343C109.294 63.8139 109.273 63.8343 109.233 63.8752L108.538 64.9176C108.517 64.9585 108.517 64.9789 108.558 64.9993C109.151 65.3672 109.498 65.5716 109.56 65.6329C109.621 65.6943 109.682 65.6943 109.703 65.6534L110.193 64.8563C110.602 65.1015 110.847 65.265 110.909 65.3059C110.97 65.3672 111.031 65.3672 111.052 65.3264L111.726 64.2431C111.767 64.2022 111.747 64.1614 111.706 64.1205C111.399 63.8548 111.072 63.6504 110.684 63.5277C110.622 63.5073 110.582 63.5073 110.561 63.5686L110.132 64.2227ZM108.906 63.0985C108.885 63.1394 108.885 63.1599 108.926 63.1803C109.519 63.5482 109.866 63.7526 109.927 63.8139C109.989 63.8752 110.05 63.8752 110.071 63.8343L110.745 62.7511C110.786 62.7102 110.765 62.6693 110.725 62.6284C110.418 62.3627 110.091 62.1584 109.703 62.0357C109.641 62.0153 109.6 62.0357 109.58 62.0766L108.906 63.0985ZM112.135 67.0636C112.298 67.5337 112.339 67.8403 112.278 68.0038C112.217 68.1469 111.971 68.1673 111.542 68.0447C111.113 67.9221 110.786 67.7381 110.561 67.5133L110.725 66.8388C110.745 66.7775 110.725 66.7162 110.684 66.6753C110.643 66.6344 110.602 66.614 110.561 66.614C110.5 66.614 110.479 66.6549 110.459 66.7162C110.03 68.1673 109.396 68.8827 108.579 68.8622C107.904 68.8622 107.475 68.6783 107.291 68.3717C107.495 67.9834 107.577 67.7586 107.516 67.6768C107.475 67.6359 107.434 67.6155 107.393 67.6155C107.332 67.6155 107.311 67.6359 107.27 67.6972C106.698 68.6579 105.921 69.1893 104.9 69.3119C104.634 69.3323 104.532 69.5776 104.613 70.0477C104.695 70.5178 104.797 70.7426 104.9 70.7426C105.39 70.7426 105.922 70.3543 106.473 69.5572C107.148 70.2725 107.802 70.5587 108.456 70.3747C109.11 70.2112 109.621 69.6798 109.989 68.8009C110.541 69.3732 111.195 69.6389 111.971 69.598C112.298 69.5776 112.585 69.1484 112.809 68.29C112.912 67.9016 112.932 67.4929 112.912 67.0841C112.891 66.6753 112.85 66.4096 112.768 66.287C112.687 66.1643 112.646 66.1235 112.605 66.1848C112.278 66.7162 112.114 67.0023 112.135 67.0636Z" stroke="#333333" stroke-width="0.75" stroke-miterlimit="10"/>
<path d="M118.123 73.1135C117.878 73.4201 117.857 73.8084 118.041 74.2785C118.082 74.3398 118.143 74.3807 118.266 74.4011C119.431 74.5851 120.514 74.5442 121.495 74.2989C121.843 74.2172 122.006 73.8697 121.965 73.277C121.863 71.8667 121.066 70.0068 119.574 67.7381C118.879 66.6753 118.041 65.5512 117.06 64.3862C116.079 63.2211 115.486 62.6489 115.282 62.6489C115.2 62.6489 115.159 62.7306 115.139 62.8737L114.934 64.2635C114.893 64.4883 114.975 64.7132 115.118 64.8767L116.202 66.0621C116.324 66.2052 116.447 66.2256 116.59 66.1234L116.815 65.7147C117.305 66.1848 118.041 67.1045 119.043 68.5148C120.432 70.4564 121.168 71.928 121.291 72.9704C120.862 73.1339 119.86 73.1339 118.348 72.9908C118.266 72.9704 118.205 73.0113 118.123 73.1135Z" stroke="#333333" stroke-width="0.75" stroke-miterlimit="10"/>
<path d="M122.415 68.6987C122.722 67.1453 122.844 65.7555 122.803 64.5701L123.253 64.1204C123.396 63.9773 123.376 63.8138 123.233 63.6503C123.069 63.4664 122.926 63.078 122.763 62.4649C122.742 62.4036 122.701 62.3627 122.64 62.3627C122.579 62.3422 122.517 62.3831 122.476 62.4444C122.436 62.5057 122.313 62.751 122.088 63.1393C122.027 63.262 122.006 63.5072 122.027 63.916C122.129 65.2037 122.109 66.4913 121.986 67.7994C121.741 70.3338 120.78 72.0711 119.063 73.0317C118.818 73.1747 118.675 73.2974 118.675 73.42C118.675 73.5426 118.797 73.5835 119.084 73.5835C119.513 73.5631 119.901 73.3996 120.208 73.093C121.332 71.9893 122.068 70.5382 122.415 68.6987Z" stroke="#333333" stroke-width="0.75" stroke-miterlimit="10"/>
<path d="M125.256 63.9774C125.174 64.1614 125.154 64.3453 125.174 64.5088L125.522 67.6155C125.665 68.8827 125.767 69.8842 125.869 70.6404C125.971 71.3967 125.992 72.3981 125.971 73.6449C125.971 73.7675 125.992 73.8493 126.033 73.9106C126.074 73.9719 126.135 73.9311 126.196 73.8289C126.646 72.95 126.666 70.7222 126.258 67.1658L125.89 63.1394C125.849 62.792 125.747 62.792 125.604 63.1803L125.256 63.9774Z" stroke="#333333" stroke-width="0.75" stroke-miterlimit="10"/>
</svg>
